<svg width="120" height="120" viewBox="0 0 120 120" fill="none" xmlns="http://www.w3.org/2000/svg">
<path fill-rule="evenodd" clip-rule="evenodd" d="M46.1557 25.5778C46.2958 24.6688 47.0781 23.9978 47.9979 23.9978C48.9176 23.9978 49.6999 24.6688 49.8399 25.5778L53.3564 48.4032C53.5978 49.9699 54.3322 51.4188 55.4531 52.5397C56.574 53.6606 58.0229 54.395 59.5896 54.6363L82.415 58.1528C83.324 58.2929 83.995 59.0752 83.995 59.9949C83.995 60.9147 83.324 61.697 82.415 61.837L59.5896 65.3535C58.0229 65.5949 56.574 66.3293 55.4531 67.4502C54.3322 68.571 53.5978 70.02 53.3564 71.5867L49.8399 94.412C49.6999 95.3211 48.9176 95.992 47.9979 95.992C47.0781 95.992 46.2958 95.3211 46.1557 94.412L42.6393 71.5867C42.3979 70.02 41.6635 68.571 40.5426 67.4502C39.4217 66.3293 37.9728 65.5949 36.4061 65.3535L13.5807 61.837C12.6717 61.697 12.0007 60.9147 12.0007 59.9949C12.0007 59.0752 12.6717 58.2929 13.5807 58.1528L36.4061 54.6363C37.9728 54.395 39.4217 53.6606 40.5426 52.5397C41.6635 51.4188 42.3979 49.9699 42.6393 48.4032L46.1557 25.5778V25.5778Z" fill="#F08C00"/>
<path fill-rule="evenodd" clip-rule="evenodd" d="M70.1536 25.5778C70.2936 24.6688 71.0759 23.9978 71.9957 23.9978C72.9154 23.9978 73.6977 24.6688 73.8377 25.5778L77.3542 48.4032C77.5956 49.9699 78.33 51.4188 79.4509 52.5397C80.5718 53.6606 82.0207 54.395 83.5874 54.6363L106.413 58.1528C107.322 58.2929 107.993 59.0752 107.993 59.9949C107.993 60.9147 107.322 61.697 106.413 61.837L83.5874 65.3535C82.0207 65.5949 80.5718 66.3293 79.4509 67.4502C78.33 68.571 77.5956 70.02 77.3542 71.5867L73.8377 94.412C73.6977 95.3211 72.9154 95.992 71.9957 95.992C71.0759 95.992 70.2936 95.3211 70.1536 94.412L66.6371 71.5867C66.3957 70.02 65.6613 68.571 64.5404 67.4502C63.4195 66.3293 61.9706 65.5949 60.4039 65.3535L37.5786 61.837C36.6695 61.697 35.9985 60.9147 35.9985 59.9949C35.9985 59.0752 36.6695 58.2929 37.5786 58.1528L60.4039 54.6363C61.9706 54.395 63.4195 53.6606 64.5404 52.5397C65.6613 51.4188 66.3957 49.9699 66.6371 48.4032L70.1536 25.5778Z" fill="#F08C00"/>
</svg>
