<?xml version="1.0" encoding="UTF-8" standalone="no"?><!DOCTYPE svg PUBLIC "-//W3C//DTD SVG 1.1//EN" "http://www.w3.org/Graphics/SVG/1.1/DTD/svg11.dtd"><svg width="100%" height="100%" viewBox="0 0 4167 4167" version="1.1" xmlns="http://www.w3.org/2000/svg" xmlns:xlink="http://www.w3.org/1999/xlink" xml:space="preserve" xmlns:serif="http://www.serif.com/" style="fill-rule:evenodd;clip-rule:evenodd;stroke-linejoin:round;stroke-miterlimit:2;"><path d="M1666.67,937.5c-0,-27.627 -10.975,-54.122 -30.51,-73.657c-19.535,-19.535 -46.03,-30.51 -73.657,-30.51c-63.627,0 -144.707,0 -208.333,0c-27.627,0 -54.122,10.975 -73.657,30.51c-19.535,19.535 -30.51,46.03 -30.51,73.657c-0,406.677 -0,1884.99 -0,2291.67c0,27.626 10.975,54.122 30.51,73.657c19.535,19.535 46.03,30.509 73.657,30.509c63.626,0 144.706,0 208.333,0c27.627,0 54.122,-10.974 73.657,-30.509c19.535,-19.535 30.51,-46.031 30.51,-73.657c-0,-406.678 -0,-1884.99 -0,-2291.67Zm1250,-0c-0,-27.627 -10.975,-54.122 -30.51,-73.657c-19.535,-19.535 -46.03,-30.51 -73.657,-30.51c-63.627,0 -144.707,0 -208.333,0c-27.627,0 -54.122,10.975 -73.657,30.51c-19.535,19.535 -30.51,46.03 -30.51,73.657c0,406.677 0,1884.99 0,2291.67c0,27.626 10.975,54.122 30.51,73.657c19.535,19.535 46.03,30.509 73.657,30.509c63.626,0 144.706,0 208.333,0c27.627,0 54.122,-10.974 73.657,-30.509c19.535,-19.535 30.51,-46.031 30.51,-73.657c-0,-406.678 -0,-1884.99 -0,-2291.67Zm-625,833.333c-0,-27.626 -10.975,-54.122 -30.51,-73.657c-19.535,-19.535 -46.03,-30.509 -73.657,-30.509c-63.627,-0 -144.707,-0 -208.333,-0c-27.627,-0 -54.122,10.974 -73.657,30.509c-19.535,19.535 -30.51,46.031 -30.51,73.657c0,160.105 0,464.896 0,625c0,27.627 10.975,54.122 30.51,73.657c19.535,19.535 46.03,30.51 73.657,30.51c63.626,-0 144.706,-0 208.333,-0c27.627,0 54.122,-10.975 73.657,-30.51c19.535,-19.535 30.51,-46.03 30.51,-73.657c-0,-160.104 -0,-464.895 -0,-625Zm1250,208.334c-0,-27.627 -10.975,-54.122 -30.51,-73.657c-19.535,-19.535 -46.03,-30.51 -73.657,-30.51l-208.333,-0c-27.627,-0 -54.122,10.975 -73.657,30.51c-19.535,19.535 -30.51,46.03 -30.51,73.657l0,208.333c-0,27.627 10.975,54.122 30.51,73.657c19.535,19.535 46.03,30.51 73.657,30.51l208.333,-0c27.627,-0 54.122,-10.975 73.657,-30.51c19.535,-19.535 30.51,-46.03 30.51,-73.657l-0,-208.333Zm-2500,-0c-0,-27.627 -10.975,-54.122 -30.51,-73.657c-19.535,-19.535 -46.03,-30.51 -73.657,-30.51l-208.333,-0c-27.627,-0 -54.122,10.975 -73.657,30.51c-19.535,19.535 -30.51,46.03 -30.51,73.657l-0,208.333c-0,27.627 10.975,54.122 30.51,73.657c19.535,19.535 46.03,30.51 73.657,30.51l208.333,-0c27.627,-0 54.122,-10.975 73.657,-30.51c19.535,-19.535 30.51,-46.03 30.51,-73.657l-0,-208.333Z" style="fill:url(#_Linear1);"/><defs><linearGradient id="_Linear1" x1="0" y1="0" x2="1" y2="0" gradientUnits="userSpaceOnUse" gradientTransform="matrix(2.36064e-13,-833.333,714.286,2.02341e-13,2083.33,2500)"><stop offset="0" style="stop-color:#e64980;stop-opacity:1"/><stop offset="1" style="stop-color:#fd7e14;stop-opacity:1"/></linearGradient></defs></svg>