<svg width="500" height="500" viewBox="0 0 500 500" fill="none" xmlns="http://www.w3.org/2000/svg">
<rect width="500" height="500" fill="white"/>
<path fill-rule="evenodd" clip-rule="evenodd" d="M199.99 112.505C199.99 109.19 198.673 106.011 196.329 103.667C193.985 101.323 190.806 100.006 187.491 100.006C179.856 100.006 170.127 100.006 162.493 100.006C159.178 100.006 155.999 101.323 153.655 103.667C151.311 106.011 149.994 109.19 149.994 112.505C149.994 161.302 149.994 338.686 149.994 387.484C149.994 390.798 151.311 393.978 153.655 396.322C155.999 398.666 159.178 399.982 162.493 399.982C170.127 399.982 179.856 399.982 187.491 399.982C190.806 399.982 193.985 398.666 196.329 396.322C198.673 393.978 199.99 390.798 199.99 387.484C199.99 338.686 199.99 161.303 199.99 112.505Z" fill="url(#paint0_radial)"/>
<path fill-rule="evenodd" clip-rule="evenodd" d="M274.972 212.481C274.972 209.166 273.655 205.986 271.311 203.642C268.967 201.298 265.788 199.982 262.473 199.982C254.838 199.982 245.109 199.982 237.475 199.982C234.16 199.982 230.98 201.298 228.636 203.642C226.292 205.986 224.976 209.166 224.976 212.481C224.976 231.692 224.976 268.264 224.976 287.475C224.976 290.79 226.292 293.969 228.636 296.313C230.98 298.657 234.16 299.974 237.475 299.974C245.109 299.974 254.838 299.974 262.473 299.974C265.788 299.974 268.967 298.657 271.311 296.313C273.655 293.969 274.972 290.79 274.972 287.475C274.972 268.264 274.972 231.692 274.972 212.481Z" fill="url(#paint1_radial)"/>
<path fill-rule="evenodd" clip-rule="evenodd" d="M424.966 237.475C424.966 234.16 423.649 230.98 421.305 228.636C418.961 226.292 415.781 224.976 412.467 224.976H387.469C384.154 224.976 380.974 226.292 378.63 228.636C376.286 230.98 374.969 234.16 374.969 237.475V262.473C374.969 265.788 376.286 268.967 378.63 271.311C380.974 273.655 384.154 274.972 387.469 274.972H412.467C415.781 274.972 418.961 273.655 421.305 271.311C423.649 268.967 424.966 265.788 424.966 262.473V237.475Z" fill="url(#paint2_radial)"/>
<path fill-rule="evenodd" clip-rule="evenodd" d="M124.996 237.499C124.996 234.184 123.679 231.005 121.335 228.661C118.991 226.317 115.812 225 112.497 225H87.499C84.1841 225 81.0049 226.317 78.6609 228.661C76.3169 231.005 75 234.184 75 237.499V262.497C75 265.812 76.3169 268.991 78.6609 271.335C81.0049 273.679 84.1841 274.996 87.499 274.996H112.497C115.812 274.996 118.991 273.679 121.335 271.335C123.679 268.991 124.996 265.812 124.996 262.497V237.499Z" fill="url(#paint3_radial)"/>
<path fill-rule="evenodd" clip-rule="evenodd" d="M349.984 112.505C349.984 109.19 348.667 106.011 346.323 103.667C343.979 101.323 340.8 100.006 337.485 100.006C329.85 100.006 320.121 100.006 312.487 100.006C309.172 100.006 305.993 101.323 303.649 103.667C301.305 106.011 299.988 109.19 299.988 112.505C299.988 161.302 299.988 338.686 299.988 387.484C299.988 390.798 301.305 393.978 303.649 396.322C305.993 398.666 309.172 399.982 312.487 399.982C320.121 399.982 329.85 399.982 337.485 399.982C340.8 399.982 343.979 398.666 346.323 396.322C348.667 393.978 349.984 390.798 349.984 387.484C349.984 338.686 349.984 161.303 349.984 112.505Z" fill="url(#paint4_radial)"/>
<defs>
<radialGradient id="paint0_radial" cx="0" cy="0" r="1" gradientUnits="userSpaceOnUse" gradientTransform="translate(174.994 250.006) rotate(-90) scale(153.006)">
<stop stop-color="#343A40"/>
<stop offset="1" stop-color="#868E96"/>
</radialGradient>
<radialGradient id="paint1_radial" cx="0" cy="0" r="1" gradientUnits="userSpaceOnUse" gradientTransform="translate(249.976 249.982) rotate(-89.979) scale(49.9511 149.854)">
<stop stop-color="#343A40"/>
<stop offset="1" stop-color="#868E96"/>
</radialGradient>
<radialGradient id="paint2_radial" cx="0" cy="0" r="1" gradientUnits="userSpaceOnUse" gradientTransform="translate(399.969 249.976) rotate(-89.958) scale(24.9756 149.854)">
<stop stop-color="#343A40"/>
<stop offset="1" stop-color="#868E96"/>
</radialGradient>
<radialGradient id="paint3_radial" cx="0" cy="0" r="1" gradientUnits="userSpaceOnUse" gradientTransform="translate(100 250) rotate(-90) scale(25 150)">
<stop stop-color="#343A40"/>
<stop offset="1" stop-color="#868E96"/>
</radialGradient>
<radialGradient id="paint4_radial" cx="0" cy="0" r="1" gradientUnits="userSpaceOnUse" gradientTransform="translate(324.988 250.006) rotate(-89.993) scale(149.854)">
<stop stop-color="#343A40"/>
<stop offset="1" stop-color="#868E96"/>
</radialGradient>
</defs>
</svg>
